<?xml version="1.0" encoding="utf-8"?>
<!-- Generator: Adobe Illustrator 25.2.3, SVG Export Plug-In . SVG Version: 6.00 Build 0)  -->
<svg version="1.1" id="Layer_1" xmlns="http://www.w3.org/2000/svg" xmlns:xlink="http://www.w3.org/1999/xlink" x="0px" y="0px"
	 viewBox="0 0 1920 1080" style="enable-background:new 0 0 1920 1080;" xml:space="preserve">
<style type="text/css">
	.st0{fill:#E60512;}
	.st1{fill:#FFFF00;}
</style>
<g id="Layer_2_1_">
	<g id="Layer_1-2">
		<g>
			<path class="st0" d="M524.7,305.4H351.6c-10.6,0-19.3,8.7-19.3,19.3v120.4c0,29.5,12.4,57.8,34.3,77.8l58.5,53.6
				c7.4,6.9,18.9,6.9,26.2,0l58.5-53.6c21.9-20,34.1-48.1,34.3-77.8V324.7C544,313.9,535.5,305.4,524.7,305.4z M536.7,445.1
				c0,27.4-11.5,53.6-31.8,72l-58.5,53.6c-4.6,4.1-11.5,4.1-15.9,0l-58.5-53.6c-20.3-18.6-31.8-44.6-31.8-72V324.7
				c0-6.4,5.3-11.7,11.7-11.7h173.1c6.4,0,11.7,5.3,11.7,11.7L536.7,445.1L536.7,445.1z"/>
			<path d="M438.4,553.5c-4.1,0-7.8-1.6-10.8-4.4l-46.5-42.6c-17.5-15.9-27.4-38.4-27.4-62.1V344.3c0-9,7.1-16.1,16.1-16.1H507
				c9,0,16.1,7.1,16.1,16.1v100.1c0,23.7-9.9,46.3-27.4,62.1l-46.5,42.6C446.2,552.1,442.3,553.5,438.4,553.5z M369.8,336
				c-4.8,0-8.5,3.9-8.5,8.5v100.1c0,21.4,9,42.1,24.9,56.6l46.5,42.6c3.2,3,8.3,3,11.5,0l46.5-42.6c15.9-14.5,24.9-35,24.9-56.6
				V344.5c0-4.8-3.9-8.5-8.5-8.5H369.8z M492.9,504L492.9,504z"/>
		</g>
		<path d="M363.4,333.9c7.6-4.4,137.4-2.1,147.3-2.1c3,1.4,5.5,3.7,7.4,6.4c3.9,6.4,0.9,12.4-0.5,23.5c-0.9,7.8,0.5,4.8,1.4,38
			c0.5,13.6,0,10.6,0.5,16.6c1.2,21.9,3.9,27.6,0.7,38.4c-1.2,3.9-2.1,5.3-3.9,12c-2.1,7.1-2.1,9.7-4.4,13.8c-1.6,3-3.5,5.1-6.2,8.1
			c-2.5,2.8-5.3,5.5-8.3,8.1c-7.4,6.4-9,12-13.8,18.2c-8.3,10.8-19.3,7.8-23.5,16.6c-0.7,1.6-1.4,3.7-3.7,5.8c-2.8,3-5.1,2.5-9,6.2
			c-2.5,2.1-2.3,2.8-3.9,3.7c-0.9,0.5-3.5,1.4-9,0c-3.7-0.9-7.1-2.5-10.1-4.6c-24.4-17.9-38.9-36.4-38.9-36.4
			c-10.8-13.8-16.3-20.7-20-29c-4.8-11.3-6-22.6-7.6-44.9c-1.4-20-1.8-40-1.2-60.3c0.7-17.3,2.3-22.3,1.4-27.6
			c-0.5-1.8-0.2-3.7,0.5-5.5C359.5,336.9,361.1,335.1,363.4,333.9z"/>
		<path class="st1" d="M475.2,414.5H437l4.6-40.5c0.2-1.4-0.7-2.5-2.1-2.8c-0.9,0-1.6,0.2-2.3,0.9l-45.6,62.6
			c-0.7,1.2-0.5,2.5,0.5,3.5c0.5,0.2,0.9,0.5,1.4,0.5h38.2l-4.6,40.5c-0.2,1.4,0.7,2.5,2.1,2.8c0.9,0,1.6-0.2,2.3-0.9l45.6-62.6
			c0.7-1.2,0.5-2.5-0.5-3.5C476.4,414.5,475.9,414.5,475.2,414.5L475.2,414.5z"/>
	</g>
</g>
</svg>
