<svg xmlns="http://www.w3.org/2000/svg" width="28" height="auto" viewBox="0 0 280.228 365.508">
  <g id="Layer_2" data-name="Layer 2">
    <g id="Layer_1-2" data-name="Layer 1">
      <g>
        <path d="M254.604,0H25.624A25.6528,25.6528,0,0,0,0,25.622V184.878a139.7988,139.7988,0,0,0,45.274,102.85l77.536,71.004a25.4828,25.4828,0,0,0,34.608,0l77.536-71.004a139.7955,139.7955,0,0,0,45.274-102.85V25.622A25.6515,25.6515,0,0,0,254.604,0Zm15.624,184.878A129.7652,129.7652,0,0,1,228.2,280.352l-77.536,71.004a15.54,15.54,0,0,1-21.102,0L52.026,280.352A129.7726,129.7726,0,0,1,9.998,184.878V25.622A15.64,15.64,0,0,1,25.622,10h228.98a15.64,15.64,0,0,1,15.624,15.622V184.878Z" fill="#e60512"/>
        <path d="M140.114,328.612a21.2814,21.2814,0,0,1-14.414-5.644L64.256,266.7a111.8187,111.8187,0,0,1-36.212-82.268V52.044A21.3662,21.3662,0,0,1,49.386,30.702H230.844a21.3662,21.3662,0,0,1,21.342,21.342V184.432A111.8262,111.8262,0,0,1,215.974,266.7L154.53,322.968a21.2958,21.2958,0,0,1-14.416,5.644ZM49.386,40.702A11.3548,11.3548,0,0,0,38.044,52.044V184.432A101.7958,101.7958,0,0,0,71.01,259.324l61.444,56.268a11.2793,11.2793,0,0,0,15.32,0l61.444-56.268a101.7884,101.7884,0,0,0,32.966-74.892V52.044a11.3548,11.3548,0,0,0-11.342-11.342ZM212.594,263.014h0Z" fill="#e60512"/>
      </g>
      <path d="M40.834,37.73c9.9116-5.6952,181.791-2.8666,195-2.64a23.8594,23.8594,0,0,1,9.6,8.64c5.1839,8.58,1.3275,16.5473-.48,31.2-1.2784,10.3634.6335,6.5168,1.92,50.4.5278,18.0025.0724,14.0909.48,22.08,1.4722,28.8546,5.2,36.5008.96,50.88-1.495,5.0706-2.8175,7.0334-5.28,15.84-2.6473,9.468-2.6491,12.6727-5.76,18.24-2.2207,3.9742-4.6172,6.6316-8.16,10.56a110.0483,110.0483,0,0,1-11.04,10.56c-9.8327,8.565-11.94,15.8388-18.24,24-11.0279,14.2864-25.4913,10.4479-31.2,22.08-.9995,2.0367-1.9415,4.79-4.8,7.68-3.7978,3.84-6.5574,3.4514-12,8.16-3.2529,2.8142-3.1207,3.6914-5.28,4.8-1.235.6341-4.6144,1.9528-12,0a41.9122,41.9122,0,0,1-13.44-6.24c-32.3525-23.88-51.36-48-51.36-48-14.3838-18.2524-21.5756-27.3786-26.4-38.4-6.5386-14.9377-7.808-30.0017-10.08-59.52a786.7154,786.7154,0,0,1-1.44-79.68c.88-22.82,3.1888-29.6311,1.92-36.48a12.9367,12.9367,0,0,1,.48-7.2A15.5256,15.5256,0,0,1,40.834,37.73Z" fill="#e60512"/>
      <path d="M189.1522,144.39h-50.539l5.9694-53.7432a3.1812,3.1812,0,0,0-5.7307-2.2274L78.3948,171.15a3.1834,3.1834,0,0,0,2.571,5.0593h50.5389l-5.9693,53.7432a3.1813,3.1813,0,0,0,5.7307,2.2273l60.4571-82.7307a3.1834,3.1834,0,0,0-2.571-5.0593Z" fill="#ff0"/>
    </g>
  </g>
</svg>
